<svg width="120" height="121" viewBox="0 0 120 121" fill="none" xmlns="http://www.w3.org/2000/svg">
<path d="M4.00012 0C2.93922 0 1.92178 0.42144 1.17161 1.17161C0.42144 1.92178 0 2.93922 0 4.00012C0 5.06102 0.42144 6.07847 1.17161 6.82864C1.92178 7.57881 2.93922 8.00025 4.00012 8.00025H12.8804L16.0885 20.8566L28.0729 84.7386C28.2445 85.6553 28.7309 86.4832 29.4482 87.0792C30.1655 87.6752 31.0684 88.0019 32.001 88.0027H40.0012C35.7576 88.0027 31.6879 89.6885 28.6872 92.6892C25.6865 95.6898 24.0007 99.7596 24.0007 104.003C24.0007 108.247 25.6865 112.317 28.6872 115.317C31.6879 118.318 35.7576 120.004 40.0012 120.004C44.2448 120.004 48.3146 118.318 51.3153 115.317C54.316 112.317 56.0017 108.247 56.0017 104.003C56.0017 99.7596 54.316 95.6898 51.3153 92.6892C48.3146 89.6885 44.2448 88.0027 40.0012 88.0027H96.003C91.7594 88.0027 87.6896 89.6885 84.6889 92.6892C81.6882 95.6898 80.0025 99.7596 80.0025 104.003C80.0025 108.247 81.6882 112.317 84.6889 115.317C87.6896 118.318 91.7594 120.004 96.003 120.004C100.247 120.004 104.316 118.318 107.317 115.317C110.318 112.317 112.003 108.247 112.003 104.003C112.003 99.7596 110.318 95.6898 107.317 92.6892C104.316 89.6885 100.247 88.0027 96.003 88.0027H104.003C104.936 88.0019 105.839 87.6752 106.556 87.0792C107.273 86.4832 107.76 85.6553 107.931 84.7386L119.932 20.7366C120.04 20.1593 120.019 19.5653 119.872 18.9967C119.725 18.4282 119.454 17.8991 119.079 17.447C118.704 16.9949 118.234 16.6309 117.702 16.3809C117.171 16.1309 116.591 16.001 116.004 16.0005H23.1207L19.8806 3.03209C19.6647 2.16634 19.1655 1.39763 18.4624 0.848224C17.7593 0.298815 16.8928 0.000246499 16.0005 0H4.00012ZM35.3211 80.0025L24.8168 24.0007H111.187L100.683 80.0025H35.3211ZM48.0015 104.003C48.0015 106.125 47.1586 108.16 45.6583 109.66C44.1579 111.161 42.123 112.003 40.0012 112.003C37.8794 112.003 35.8445 111.161 34.3442 109.66C32.8439 108.16 32.001 106.125 32.001 104.003C32.001 101.881 32.8439 99.8465 34.3442 98.3462C35.8445 96.8458 37.8794 96.003 40.0012 96.003C42.123 96.003 44.1579 96.8458 45.6583 98.3462C47.1586 99.8465 48.0015 101.881 48.0015 104.003ZM104.003 104.003C104.003 106.125 103.16 108.16 101.66 109.66C100.16 111.161 98.1248 112.003 96.003 112.003C93.8812 112.003 91.8463 111.161 90.3459 109.66C88.8456 108.16 88.0027 106.125 88.0027 104.003C88.0027 101.881 88.8456 99.8465 90.3459 98.3462C91.8463 96.8458 93.8812 96.003 96.003 96.003C98.1248 96.003 100.16 96.8458 101.66 98.3462C103.16 99.8465 104.003 101.881 104.003 104.003Z" fill="#383838"/>
</svg>
